<svg xmlns="http://www.w3.org/2000/svg" width="85.327" height="85.327" viewBox="0 0 85.327 85.327">
  <g id="Outline" transform="translate(-16 -16)">
    <path id="Caminho_3541" data-name="Caminho 3541" d="M18.844,43.02H16V37.331a7.119,7.119,0,0,1,7.111-7.111H71.462V27.377H68.618a1.422,1.422,0,0,1-1.006-2.428l8.533-8.533a1.422,1.422,0,0,1,2.011,0l8.533,8.533a1.422,1.422,0,0,1-1.006,2.428H82.839v2.844h5.688a7.119,7.119,0,0,1,7.111,7.111V65.774H92.794V37.331a4.271,4.271,0,0,0-4.266-4.266H82.839v25.6H80V25.955a1.422,1.422,0,0,1,1.422-1.422h.833l-5.1-5.1-5.1,5.1h.833a1.422,1.422,0,0,1,1.422,1.422V60.085H71.462V33.065H23.111a4.271,4.271,0,0,0-4.266,4.266Zm4.266,44.086H46.8L43.384,98.482H40.176v2.844H71.462V98.482H68.254l-1.829-6.1L63.7,93.2l1.584,5.28H46.353l3.413-11.377h10.32V84.261H23.111a4.271,4.271,0,0,1-4.266-4.266V78.573H58.663V75.729H18.844V45.864H16V79.995A7.119,7.119,0,0,0,23.111,87.106ZM65.774,62.93V40.176H60.086V72.884H23.111V70.04H28.8V58.663a1.422,1.422,0,0,1,1.422-1.422h8.533a1.422,1.422,0,0,1,1.422,1.422V70.04H43.02V48.708a1.422,1.422,0,0,1,1.422-1.422h8.533A1.422,1.422,0,0,1,54.4,48.708V70.04h2.844V38.754a1.422,1.422,0,0,1,1.422-1.422H67.2a1.422,1.422,0,0,1,1.422,1.422V62.93ZM37.332,60.085H31.643V70.04h5.688Zm14.221-9.955H45.864V70.04h5.688ZM23.111,35.909v2.844h2.844V35.909Zm8.533,0H28.8v2.844h2.844Zm2.844,0v2.844h2.844V35.909Zm65.589,58.135a4.265,4.265,0,0,1-3.016,7.282,4.355,4.355,0,0,1-3.016-1.25l-6.807-6.807a17.079,17.079,0,1,1,6.032-6.032ZM92.794,78.573A14.221,14.221,0,1,0,78.573,92.794,14.221,14.221,0,0,0,92.794,78.573Zm5.271,17.483L91.6,89.587a17.223,17.223,0,0,1-2.01,2.01l6.469,6.468a1.421,1.421,0,1,0,2.009-2.009ZM89.95,78.573A11.377,11.377,0,1,1,78.573,67.2,11.377,11.377,0,0,1,89.95,78.573Zm-2.844,0a8.533,8.533,0,1,0-8.533,8.533A8.533,8.533,0,0,0,87.106,78.573Zm-14.221,0h2.844a2.848,2.848,0,0,1,2.844-2.844V72.884A5.7,5.7,0,0,0,72.885,78.573Zm18.487-54.04h2.844A8.542,8.542,0,0,0,85.684,16v2.844A5.7,5.7,0,0,1,91.372,24.532Z" fill="#0ecc3c"/>
  </g>
</svg>
